<?xml version="1.0" encoding="utf-8"?>
<svg xmlns="http://www.w3.org/2000/svg">
    <symbol id="agregar" xmlns="http://www.w3.org/2000/symbol" fill="green" stroke="currentColor"
        stroke-width="2"
        class="size-6" viewBox="0 0 24 24">
        <path stroke-linecap="round" stroke-linejoin="round"
            d="M12 9v6m3-3H9m12 0a9 9 0 1 1-18 0 9 9 0 0 1 18 0" />
    </symbol>
    <symbol id="ajustes" xmlns="http://www.w3.org/2000/symbol" fill="none" viewBox="0 0 24 24"
        stroke="currentColor">
        <path stroke-linecap="round" stroke-linejoin="round" stroke-width="1.5"
            d="M10.325 4.317c.426-1.756 2.924-1.756 3.35 0a1.724 1.724 0 002.573 1.066c1.543-.94 3.31.826 2.37 2.37a1.724 1.724 0 001.066 2.573c1.756.426 1.756 2.924 0 3.35a1.724 1.724 0 00-1.066 2.573c.94 1.543-.826 3.31-2.37 2.37a1.724 1.724 0 00-2.573 1.066c-.426 1.756-2.924 1.756-3.35 0a1.724 1.724 0 00-2.573-1.066c-1.543.94-3.31-.826-2.37-2.37a1.724 1.724 0 00-1.066-2.573c-1.756-.426-1.756-2.924 0-3.35a1.724 1.724 0 001.066-2.573c-.94-1.543.826-3.31 2.37-2.37a1.724 1.724 0 002.573-1.066z"></path>
        <path stroke-linecap="round" stroke-linejoin="round" stroke-width="1.5"
            d="M15 12a3 3 0 11-6 0 3 3 0 016 0z"></path>
    </symbol>
    <symbol id="dictamen" xmlns="http://www.w3.org/2000/symbol" fill="none" viewBox="0 0 24 24"
        stroke-width="1.5" stroke="currentColor" class="size-6">
        <path stroke-linecap="round" stroke-linejoin="round"
            d="M12 3v17.25m0 0c-1.472 0-2.882.265-4.185.75M12 20.25c1.472 0 2.882.265 4.185.75M18.75 4.97A48.416 48.416 0 0 0 12 4.5c-2.291 0-4.545.16-6.75.47m13.5 0c1.01.143 2.01.317 3 .52m-3-.52 2.62 10.726c.122.499-.106 1.028-.589 1.202a5.988 5.988 0 0 1-2.031.352 5.988 5.988 0 0 1-2.031-.352c-.483-.174-.711-.703-.59-1.202L18.75 4.971Zm-16.5.52c.99-.203 1.99-.377 3-.52m0 0 2.62 10.726c.122.499-.106 1.028-.589 1.202a5.989 5.989 0 0 1-2.031.352 5.989 5.989 0 0 1-2.031-.352c-.483-.174-.711-.703-.59-1.202L5.25 4.971Z"></path>
    </symbol>
    <symbol id="eliminar" xmlns="http://www.w3.org/2000/symbol" fill="none" stroke="currentColor"
        stroke-width="2" class="size-6 inline" viewBox="0 0 24 24">
        <path stroke-linecap="round" stroke-linejoin="round"
            d="M15 12H9m12 0a9 9 0 1 1-18 0 9 9 0 0 1 18 0" />
    </symbol>
    <symbol id="enviar" xmlns="http://www.w3.org/2000/symbol" fill="none" stroke="currentColor"
        stroke-width="2" class="size-6" viewBox="0 0 24 24">
        <path stroke-linecap="round" stroke-linejoin="round" d="M6 12 3 3l18 9-18 9zm0 0h8" />
    </symbol>
    <symbol id="enviarrev" xmlns="http://www.w3.org/2000/symbol" fill="none" stroke="currentColor"
        stroke-width="2" class="size-6" viewBox="0 0 24 24">
        <path stroke-linecap="round" stroke-linejoin="round"
            d="m9 13 2 2 4-5m6 2-2 3-1 3-3 1-3 2-3-2-3-1-1-3-2-3 2-3 1-3 3-1 3-2 3 2 3 1 1 3z" />
    </symbol>
    <symbol id="limpiar" xmlns="http://www.w3.org/2000/symbol" fill="none" stroke="currentColor"
        stroke-width="2" class="size-6" viewBox="0 0 24 24">
        <path stroke-linecap="round" stroke-linejoin="round"
            d="M20 8v10a2 2 0 0 1-3 2H7a2 2 0 0 1-3-2V8m8 3v6m0 0-3-3m3 3 3-3M3 8h18l1-2V5l-1-1H3L2 5v1z" />
    </symbol>
    <symbol id="logout" xmlns="http://www.w3.org/2000/symbol" class="w-6 h-6" fill="none"
        viewBox="0 0 24 24"
        stroke="currentColor">
        <path stroke-linecap="round" stroke-linejoin="round" stroke-width="1.5"
            d="M15.75 9V5.25A2.25 2.25 0 0013.5 3h-6A2.25 2.25 0 005.25 5.25v13.5A2.25 2.25 0 007.5 21h6a2.25 2.25 0 002.25-2.25V15m-3-3h12m0 0l-3.75-3.75M24 12l-3.75 3.75"></path>
    </symbol>
    <symbol id="ordenes" xmlns="http://www.w3.org/2000/symbol" fill="none" stroke="currentColor"
        stroke-width="2" class="size-6" viewBox="0 0 24 24">
        <path stroke-linecap="round" stroke-linejoin="round"
            d="M16 11V6a4 4 0 1 0-8 0v5m12-2 1 12-1 1H4l-1-1L4 9a1 1 0 0 1 2-1h12zM9 11H8zm7 0z" />
    </symbol>
    <symbol id="pagos" xmlns="http://www.w3.org/2000/symbol" fill="none" stroke="currentColor"
        stroke-width="2" class="size-6" viewBox="0 0 24 24">
        <path stroke-linecap="round" stroke-linejoin="round"
            d="m2 19 16 2 2-1v-1M4 5zL3 6H2m0 0zl1-1h17M2 6v9M20 5zl1 1h1m-2-1zl1 1v9l-1 2h-1m2-2h-1l-1 1v1m0 0H4m0 0za1 1 0 0 1-1-2v0m2 2v-1l-1-1H2m13-4a3 3 0 1 1-6 0 3 3 0 0 1 6 0m-9 0" />
    </symbol>
    <symbol id="proveedores" xmlns="http://www.w3.org/2000/symbol" fill="none" viewBox="0 0 24 24"
        class="size-6">
        <path stroke-width="1.5" stroke="currentColor" stroke-linecap="round"
            stroke-linejoin="round"
            d="M2.25 21h19.5m-18-18v18m10.5-18v18m6-13.5V21M6.75 6.75h.75m-.75 3h.75m-.75 3h.75m3-6h.75m-.75 3h.75m-.75 3h.75M6.75 21v-3.375c0-.621.504-1.125 1.125-1.125h2.25c.621 0 1.125.504 1.125 1.125V21M3 3h12m-.75 4.5H21m-3.75 3.75h.008v.008h-.008v-.008Zm0 3h.008v.008h-.008v-.008Zm0 3h.008v.008h-.008v-.008Z"></path>
    </symbol>
    <symbol id="revisarsol" xmlns="http://www.w3.org/2000/symbol" fill="none" stroke="currentColor"
        stroke-width="2" class="size-6" viewBox="0 0 24 24">
        <path stroke-linecap="round" stroke-linejoin="round"
            d="M10 2H6L5 3v18l1 1h12l2-1v-9M10 2za9 9 0 0 1 9 9v1M10 2a3 3 0 0 1 4 4v1l1 1h1a3 3 0 0 1 4 4M9 15l2 2 4-5" />
    </symbol>
    <symbol id="solicitar" xmlns="http://www.w3.org/2000/symbol" fill="none" stroke="currentColor"
        stroke-width="2" class="size-6" viewBox="0 0 24 24">
        <path stroke-linecap="round" stroke-linejoin="round"
            d="M20 8v10a2 2 0 0 1-3 2H7a2 2 0 0 1-3-2V8m6 3h4M3 8h18l1-2V5l-1-1H3L2 5v1z" />
    </symbol>
    <symbol id="usuarios" xmlns="http://www.w3.org/2000/symbol" fill="none" viewBox="0 0 24 24"
        stroke-width="1.5" stroke="currentColor" class="size-6">
        <path stroke-linecap="round" stroke-linejoin="round"
            d="M18 18.72a9.094 9.094 0 0 0 3.741-.479 3 3 0 0 0-4.682-2.72m.94 3.198.001.031c0 .225-.012.447-.037.666A11.944 11.944 0 0 1 12 21c-2.17 0-4.207-.576-5.963-1.584A6.062 6.062 0 0 1 6 18.719m12 0a5.971 5.971 0 0 0-.941-3.197m0 0A5.995 5.995 0 0 0 12 12.75a5.995 5.995 0 0 0-5.058 2.772m0 0a3 3 0 0 0-4.681 2.72 8.986 8.986 0 0 0 3.74.477m.94-3.197a5.971 5.971 0 0 0-.94 3.197M15 6.75a3 3 0 1 1-6 0 3 3 0 0 1 6 0Zm6 3a2.25 2.25 0 1 1-4.5 0 2.25 2.25 0 0 1 4.5 0Zm-13.5 0a2.25 2.25 0 1 1-4.5 0 2.25 2.25 0 0 1 4.5 0Z"></path>
    </symbol>
    <symbol id="verhistorial" xmlns="http://www.w3.org/2000/symbol" viewBox="0 0 24 24">
        <path fill="none" stroke-width="1.5" stroke="currentColor" stroke-linecap="round"
            stroke-linejoin="round"
            d="M19.5 14.25v-2.625a3.375 3.375 0 0 0-3.375-3.375h-1.5A1.125 1.125 0 0 1 13.5 7.125v-1.5a3.375 3.375 0 0 0-3.375-3.375H8.25m5.231 13.481L15 17.25m-4.5-15H5.625c-.621 0-1.125.504-1.125 1.125v16.5c0 .621.504 1.125 1.125 1.125h12.75c.621 0 1.125-.504 1.125-1.125V11.25a9 9 0 0 0-9-9Zm3.75 11.625a2.625 2.625 0 1 1-5.25 0 2.625 2.625 0 0 1 5.25 0Z"></path>
    </symbol>
</svg>