<svg xmlns="http://www.w3.org/2000/svg" style="display: none;">
  <symbol id="solicitar_material" viewBox="0 0 24 24">
    <path stroke-linecap="round" stroke-linejoin="round"
      d="m20.25 7.5-.625 10.632a2.25 2.25 0 0 1-2.247 2.118H6.622a2.25 2.25 0 0 1-2.247-2.118L3.75 7.5M10 11.25h4M3.375 7.5h17.25c.621 0 1.125-.504 1.125-1.125v-1.5c0-.621-.504-1.125-1.125-1.125H3.375c-.621 0-1.125.504-1.125 1.125v1.5c0 .621.504 1.125 1.125 1.125Z" />
  </symbol>
  <symbol id="revisar_solicitudes" viewBox="0 0 24 24">
    <path stroke-linecap="round" stroke-linejoin="round"
      d="M10.125 2.25h-4.5c-.621 0-1.125.504-1.125 1.125v17.25c0 .621.504 1.125 1.125 1.125h12.75c.621 0 1.125-.504 1.125-1.125v-9M10.125 2.25h.375a9 9 0 0 1 9 9v.375M10.125 2.25A3.375 3.375 0 0 1 13.5 5.625v1.5c0 .621.504 1.125 1.125 1.125h1.5a3.375 3.375 0 0 1 3.375 3.375M9 15l2.25 2.25L15 12" />
  </symbol>
  <symbol id="enviar_revision" viewBox="0 0 24 24">
    <path stroke-linecap="round" stroke-linejoin="round"
      d="M9 12.75 11.25 15 15 9.75M21 12c0 1.268-.63 2.39-1.593 3.068a3.745 3.745 0 0 1-1.043 3.296 3.745 3.745 0 0 1-3.296 1.043A3.745 3.745 0 0 1 12 21c-1.268 0-2.39-.63-3.068-1.593a3.746 3.746 0 0 1-3.296-1.043 3.745 3.745 0 0 1-1.043-3.296A3.745 3.745 0 0 1 3 12c0-1.268.63-2.39 1.593-3.068a3.745 3.745 0 0 1 1.043-3.296 3.746 3.746 0 0 1 3.296-1.043A3.746 3.746 0 0 1 12 3c1.268 0 2.39.63 3.068 1.593a3.746 3.746 0 0 1 3.296 1.043 3.746 3.746 0 0 1 1.043 3.296A3.745 3.745 0 0 1 21 12Z" />
  </symbol>
  <symbol id="dictamen_solicitudes" viewBox="0 0 24 24">
    <path stroke-linecap="round" stroke-linejoin="round"
      d="M12 3v17.25m0 0c-1.472 0-2.882.265-4.185.75M12 20.25c1.472 0 2.882.265 4.185.75M18.75 4.97A48.416 48.416 0 0 0 12 4.5c-2.291 0-4.545.16-6.75.47m13.5 0c1.01.143 2.01.317 3 .52m-3-.52 2.62 10.726c.122.499-.106 1.028-.589 1.202a5.988 5.988 0 0 1-2.031.352 5.988 5.988 0 0 1-2.031-.352c-.483-.174-.711-.703-.59-1.202L18.75 4.971Zm-16.5.52c.99-.203 1.99-.377 3-.52m0 0 2.62 10.726c.122.499-.106 1.028-.589 1.202a5.989 5.989 0 0 1-2.031.352 5.989 5.989 0 0 1-2.031-.352c-.483-.174-.711-.703-.59-1.202L5.25 4.971Z" />
  </symbol>
  <symbol id="ordenes_compra" viewBox="0 0 24 24">
    <path stroke-linecap="round" stroke-linejoin="round"
      d="M15.75 10.5V6a3.75 3.75 0 1 0-7.5 0v4.5m11.356-1.993 1.263 12c.07.665-.45 1.243-1.119 1.243H4.25a1.125 1.125 0 0 1-1.12-1.243l1.264-12A1.125 1.125 0 0 1 5.513 7.5h12.974c.576 0 1.059.435 1.119 1.007ZM8.625 10.5a.375.375 0 1 1-.75 0 .375.375 0 0 1 .75 0Zm7.5 0a.375.375 0 1 1-.75 0 .375.375 0 0 1 .75 0Z" />
  </symbol>
  <symbol id="crud_proveedores" viewBox="0 0 24 24">
    <path stroke-linecap="round" stroke-linejoin="round"
      d="M2.25 21h19.5m-18-18v18m10.5-18v18m6-13.5V21M6.75 6.75h.75m-.75 3h.75m-.75 3h.75m3-6h.75m-.75 3h.75m-.75 3h.75M6.75 21v-3.375c0-.621.504-1.125 1.125-1.125h2.25c.621 0 1.125.504 1.125 1.125V21M3 3h12m-.75 4.5H21m-3.75 3.75h.008v.008h-.008v-.008Zm0 3h.008v.008h-.008v-.008Zm0 3h.008v.008h-.008v-.008Z" />
  </symbol>
  <symbol id="ver_historial" viewBox="0 0 24 24">
    <path stroke-linecap="round" stroke-linejoin="round"
      d="M19.5 14.25v-2.625a3.375 3.375 0 0 0-3.375-3.375h-1.5A1.125 1.125 0 0 1 13.5 7.125v-1.5a3.375 3.375 0 0 0-3.375-3.375H8.25m5.231 13.481L15 17.25m-4.5-15H5.625c-.621 0-1.125.504-1.125 1.125v16.5c0 .621.504 1.125 1.125 1.125h12.75c.621 0 1.125-.504 1.125-1.125V11.25a9 9 0 0 0-9-9Zm3.75 11.625a2.625 2.625 0 1 1-5.25 0 2.625 2.625 0 0 1 5.25 0Z" />
  </symbol>
  <symbol id="registrar_productos" viewBox="0 0 24 24">
    <path stroke-linecap="round" stroke-linejoin="round"
      d="M19.5 14.25v-2.625a3.375 3.375 0 0 0-3.375-3.375h-1.5A1.125 1.125 0 0 1 13.5 7.125v-1.5a3.375 3.375 0 0 0-3.375-3.375H8.25m0 12.75h7.5m-7.5 3H12M10.5 2.25H5.625c-.621 0-1.125.504-1.125 1.125v17.25c0 .621.504 1.125 1.125 1.125h12.75c.621 0 1.125-.504 1.125-1.125V11.25a9 9 0 0 0-9-9Z" />
  </symbol>
  <symbol id="crud_productos" viewBox="0 0 24 24">
    <path stroke-linecap="round" stroke-linejoin="round"
      d="m20.25 7.5-.625 10.632a2.25 2.25 0 0 1-2.247 2.118H6.622a2.25 2.25 0 0 1-2.247-2.118L3.75 7.5m8.25 3v6.75m0 0-3-3m3 3 3-3M3.375 7.5h17.25c.621 0 1.125-.504 1.125-1.125v-1.5c0-.621-.504-1.125-1.125-1.125H3.375c-.621 0-1.125.504-1.125 1.125v1.5c0 .621.504 1.125 1.125 1.125Z" />
  </symbol>
  <symbol id="entrega_productos" viewBox="0 0 24 24">
    <path stroke-linecap="round" stroke-linejoin="round"
      d="M9 8.25H7.5a2.25 2.25 0 0 0-2.25 2.25v9a2.25 2.25 0 0 0 2.25 2.25h9a2.25 2.25 0 0 0 2.25-2.25v-9a2.25 2.25 0 0 0-2.25-2.25H15m0-3-3-3m0 0-3 3m3-3V15" />
  </symbol>
  <symbol id="pagos_pendientes" viewBox="0 0 24 24">
    <path stroke-linecap="round" stroke-linejoin="round"
      d="M2.25 18.75a60.07 60.07 0 0 1 15.797 2.101c.727.198 1.453-.342 1.453-1.096V18.75M3.75 4.5v.75A.75.75 0 0 1 3 6h-.75m0 0v-.375c0-.621.504-1.125 1.125-1.125H20.25M2.25 6v9m18-10.5v.75c0 .414.336.75.75.75h.75m-1.5-1.5h.375c.621 0 1.125.504 1.125 1.125v9.75c0 .621-.504 1.125-1.125 1.125h-.375m1.5-1.5H21a.75.75 0 0 0-.75.75v.75m0 0H3.75m0 0h-.375a1.125 1.125 0 0 1-1.125-1.125V15m1.5 1.5v-.75A.75.75 0 0 0 3 15h-.75M15 10.5a3 3 0 1 1-6 0 3 3 0 0 1 6 0Zm3 0h.008v.008H18V10.5Zm-12 0h.008v.008H6V10.5Z" />
  </symbol>
  <symbol id="usuarios" viewBox="0 0 24 24">
    <path stroke-linecap="round" stroke-linejoin="round"
      d="M18 18.72a9.094 9.094 0 0 0 3.741-.479 3 3 0 0 0-4.682-2.72m.94 3.198.001.031c0 .225-.012.447-.037.666A11.944 11.944 0 0 1 12 21c-2.17 0-4.207-.576-5.963-1.584A6.062 6.062 0 0 1 6 18.719m12 0a5.971 5.971 0 0 0-.941-3.197m0 0A5.995 5.995 0 0 0 12 12.75a5.995 5.995 0 0 0-5.058 2.772m0 0a3 3 0 0 0-4.681 2.72 8.986 8.986 0 0 0 3.74.477m.94-3.197a5.971 5.971 0 0 0-.94 3.197M15 6.75a3 3 0 1 1-6 0 3 3 0 0 1 6 0Zm6 3a2.25 2.25 0 1 1-4.5 0 2.25 2.25 0 0 1 4.5 0Zm-13.5 0a2.25 2.25 0 1 1-4.5 0 2.25 2.25 0 0 1 4.5 0Z" />
  </symbol>
  <symbol id="proveedores" viewBox="0 0 24 24">
    <path stroke-linecap="round" stroke-linejoin="round"
      d="M2.25 21h19.5m-18-18v18m10.5-18v18m6-13.5V21M6.75 6.75h.75m-.75 3h.75m-.75 3h.75m3-6h.75m-.75 3h.75m-.75 3h.75M6.75 21v-3.375c0-.621.504-1.125 1.125-1.125h2.25c.621 0 1.125.504 1.125 1.125V21M3 3h12m-.75 4.5H21m-3.75 3.75h.008v.008h-.008v-.008Zm0 3h.008v.008h-.008v-.008Zm0 3h.008v.008h-.008v-.008Z" />
  </symbol>
  <symbol id="limpiar_almacenamiento" viewBox="0 0 24 24">
    <path stroke-linecap="round" stroke-linejoin="round"
      d="M9 3.75H6.912a2.25 2.25 0 0 0-2.15 1.588L2.35 13.177a2.25 2.25 0 0 0-.1.661V18a2.25 2.25 0 0 0 2.25 2.25h15A2.25 2.25 0 0 0 21.75 18v-4.162c0-.224-.034-.447-.1-.661L19.24 5.338a2.25 2.25 0 0 0-2.15-1.588H15M2.25 13.5h3.86a2.25 2.25 0 0 1 2.012 1.244l.256.512a2.25 2.25 0 0 0 2.013 1.244h3.218a2.25 2.25 0 0 0 2.013-1.244l.256-.512a2.25 2.25 0 0 1 2.013-1.244h3.859M12 3v8.25m0 0-3-3m3 3 3-3" />
  </symbol>
  <symbol id="almacenamiento_doble" viewBox="0 0 24 24">
    <path stroke-linecap="round" stroke-linejoin="round"
      d="m20.25 7.5-.625 10.632a2.25 2.25 0 0 1-2.247 2.118H6.622a2.25 2.25 0 0 1-2.247-2.118L3.75 7.5m8.25 3v6.75m0 0-3-3m3 3 3-3M3.375 7.5h17.25c.621 0 1.125-.504 1.125-1.125v-1.5c0-.621-.504-1.125-1.125-1.125H3.375c-.621 0-1.125.504-1.125 1.125v1.5c0 .621.504 1.125 1.125 1.125Z" />
  </symbol>
  <symbol id="success" viewBox="0 0 24 24">
    <path stroke-linecap="round" stroke-linejoin="round"
      d="M9 12.75 11.25 15 15 9.75M21 12a9 9 0 1 1-18 0 9 9 0 0 1 18 0Z" />
  </symbol>
  <symbol id="settings" viewBox="0 0 24 24">
    <path stroke-linecap="round" stroke-linejoin="round" stroke-width="1.5"
      d="M10.325 4.317c.426-1.756 2.924-1.756 3.35 0a1.724 1.724 0 002.573 1.066c1.543-.94 3.31.826 2.37 2.37a1.724 1.724 0 001.066 2.573c1.756.426 1.756 2.924 0 3.35a1.724 1.724 0 00-1.066 2.573c.94 1.543-.826 3.31-2.37 2.37a1.724 1.724 0 00-2.573 1.066c-.426 1.756-2.924 1.756-3.35 0a1.724 1.724 0 00-2.573-1.066c-1.543.94-3.31-.826-2.37-2.37a1.724 1.724 0 00-1.066-2.573c-1.756-.426-1.756-2.924 0-3.35a1.724 1.724 0 001.066-2.573c-.94-1.543.826-3.31 2.37-2.37a1.724 1.724 0 002.573-1.066z" />
    <path stroke-linecap="round" stroke-linejoin="round" stroke-width="1.5"
      d="M15 12a3 3 0 11-6 0 3 3 0 016 0z" />
  </symbol>
  <symbol id="logout" viewBox="0 0 24 24">
    <path stroke-linecap="round" stroke-linejoin="round" stroke-width="1.5"
      d="M15.75 9V5.25A2.25 2.25 0 0013.5 3h-6A2.25 2.25 0 005.25 5.25v13.5A2.25 2.25 0 007.5 21h6a2.25 2.25 0 002.25-2.25V15m-3-3h12m0 0l-3.75-3.75M24 12l-3.75 3.75" />
  </symbol>
  <symbol id="aceptado" viewBox="0 0 24 24">
    <path stroke-linecap="round" stroke-linejoin="round"
      d="M9 12.75 11.25 15 15 9.75M21 12a9 9 0 1 1-18 0 9 9 0 0 1 18 0Z" />
  </symbol>
  <symbol id="en_espera" viewBox="0 0 24 24">
    <path stroke-linecap="round" stroke-linejoin="round"
      d="M15 12H9m12 0a9 9 0 1 1-18 0 9 9 0 0 1 18 0Z" />
  </symbol>

  <symbol id="rechazado" viewBox="0 0 24 24">
    <path stroke-linecap="round" stroke-linejoin="round"
      d="m9.75 9.75 4.5 4.5m0-4.5-4.5 4.5M21 12a9 9 0 1 1-18 0 9 9 0 0 1 18 0Z" />
  </symbol>

  <symbol id="lupa" viewBox="0 0 24 24">
    <path stroke-linecap="round" stroke-linejoin="round"
      d="m21 21-5.197-5.197m0 0A7.5 7.5 0 1 0 5.196 5.196a7.5 7.5 0 0 0 10.607 10.607Z" />
  </symbol>

  <symbol id="revision" viewBox="0 0 24 24">
    <path stroke-linecap="round" stroke-linejoin="round" d="M10.125 2.25h-4.5c-.621 0-1.125.504-1.125 1.125v17.25c0 .621.504 1.125 1.125 1.125h12.75c.621 0 1.125-.504 1.125-1.125v-9M10.125 2.25h.375a9 9 0 0 1 9 9v.375M10.125 2.25A3.375 3.375 0 0 1 13.5 5.625v1.5c0 .621.504 1.125 1.125 1.125h1.5a3.375 3.375 0 0 1 3.375 3.375" />
    <path stroke-linecap="round" stroke-linejoin="round" d="M15 13.5a2.25 2.25 0 1 1-4.5 0 2.25 2.25 0 0 1 4.5 0Z" />
    <path stroke-linecap="round" stroke-linejoin="round" d="M16.5 15.75l3 3" />
  </symbol>

  <symbol id="cotizacion" viewBox="0 0 24 24">
    <path stroke-linecap="round" stroke-linejoin="round" d="M9.568 3H5.25A2.25 2.25 0 0 0 3 5.25v4.318c0 .597.237 1.17.659 1.591l9.581 9.581c.699.699 1.78.872 2.607.33a18.095 18.095 0 0 0 5.223-5.223c.542-.827.369-1.908-.33-2.607L11.16 3.66A2.25 2.25 0 0 0 9.568 3Z" />
    <path stroke-linecap="round" stroke-linejoin="round" d="M6 9h.008v.008H6V9Z" />
  </symbol>

</svg>